<svg xmlns="http://www.w3.org/2000/svg" width="1200" height="630" viewBox="0 0 1200 630" fill="none">
  <defs>
    <linearGradient id="g" x1="0" y1="630" x2="1200" y2="0" gradientUnits="userSpaceOnUse">
      <stop stop-color="#0a1628"/>
      <stop offset="1" stop-color="#1f1e39"/>
    </linearGradient>
  </defs>
  <rect width="1200" height="630" fill="url(#g)"/>
  <rect x="140" y="160" width="170" height="220" rx="16" fill="#282b4b"/>
  <rect x="340" y="160" width="170" height="220" rx="16" fill="#282b4b"/>
  <rect x="540" y="160" width="170" height="220" rx="16" fill="#282b4b"/>
  <circle cx="225" cy="230" r="28" fill="#5c33cc"/>
  <circle cx="425" cy="270" r="28" fill="#33c2cc"/>
  <circle cx="625" cy="250" r="28" fill="#7a57db"/>
  <path d="M253 230 H397 M453 270 H597" stroke="#ffffff" stroke-opacity="0.35" stroke-width="3"/>
  <rect x="780" y="190" width="280" height="160" rx="18" fill="#161a31" stroke="#7a57db" stroke-opacity="0.6"/>
  <rect x="810" y="230" width="220" height="14" rx="7" fill="#ffffff" fill-opacity="0.75"/>
  <rect x="810" y="262" width="180" height="12" rx="6" fill="#ffffff" fill-opacity="0.3"/>
  <rect x="810" y="292" width="200" height="12" rx="6" fill="#ffffff" fill-opacity="0.2"/>
  <text x="140" y="500" fill="#7a57db" font-family="Segoe UI, Arial, sans-serif" font-size="28" font-weight="600">RAG DOCUMENT Q&amp;A</text>
  <text x="140" y="545" fill="#ffffff" fill-opacity="0.7" font-family="Segoe UI, Arial, sans-serif" font-size="22">Embed · Retrieve · Answer with context</text>
</svg>
